<svg width="600" height="900" viewBox="0 0 600 900" fill="none" xmlns="http://www.w3.org/2000/svg">
<g clip-path="url(#clip0_1_2)">
<mask id="mask0_1_2" style="mask-type:luminance" maskUnits="userSpaceOnUse" x="0" y="0" width="600" height="900">
<path d="M600 0H0V900H600V0Z" fill="white"/>
</mask>
<g mask="url(#mask0_1_2)">
<path fill-rule="evenodd" clip-rule="evenodd" d="M0 0H600V900H0V0ZM544 40H176C167.169 40 160.009 47.1549 160 55.9842V56V84.7242C160 126.298 126.298 160 84.7243 160H40H56C47.1634 160 40 167.163 40 176V560H560V56C560 47.1634 552.837 40 544 40Z" fill="url(#paint0_linear_1_2)"/>
<path d="M40 560H560V844C560 852.837 552.837 860 544 860H56C47.1634 860 40 852.837 40 844V560Z" fill="white" fill-opacity="0.75"/>
<path d="M483.35 535H116.65C111.32 535 107 538.582 107 543V577C107 581.418 111.32 585 116.65 585H483.35C488.68 585 493 581.418 493 577V543C493 538.582 488.68 535 483.35 535Z" fill="white"/>
<path d="M130 85C130 60.1472 109.853 40 85 40C60.1472 40 40 60.1472 40 85C40 109.853 60.1472 130 85 130C109.853 130 130 109.853 130 85Z" fill="white"/>
</g>
<g clip-path="url(#clip1_1_2)">
<path fill-rule="evenodd" clip-rule="evenodd" d="M63.6614 90.6432C64.8659 91.8477 64.8659 93.775 63.6614 94.9795L63.5409 95.1C62.3364 96.3045 60.4091 96.3045 59.2045 95.1C58 93.8955 58 91.9682 59.2045 90.7636L59.325 90.6432C60.5295 89.4386 62.4568 89.4386 63.6614 90.6432Z" fill="#965CFF"/>
<path fill-rule="evenodd" clip-rule="evenodd" d="M78.1159 91.4864C79.3205 92.6909 79.3205 94.6182 78.1159 95.8227L69.5636 104.255C68.3591 105.459 66.4318 105.459 65.2273 104.255C64.0227 103.05 64.0227 101.123 65.2273 99.9182L73.7795 91.4864C74.9841 90.2818 76.9114 90.2818 78.1159 91.4864Z" fill="#B992FF"/>
<path fill-rule="evenodd" clip-rule="evenodd" d="M89.6795 106.061C90.6432 104.616 92.5705 104.255 93.8955 105.218L94.1364 105.339C95.5818 106.302 95.9432 108.23 94.9795 109.555C94.0159 111 92.0886 111.361 90.7636 110.398L90.5227 110.277C89.1977 109.314 88.8364 107.507 89.6795 106.061Z" fill="#DCC9FF"/>
<path fill-rule="evenodd" clip-rule="evenodd" d="M110.036 90.4023C111.241 91.6068 111.241 93.5341 110.036 94.7386L105.82 98.9546C104.616 100.159 102.689 100.159 101.484 98.9546C100.28 97.75 100.28 95.8227 101.484 94.6182L105.7 90.4023C106.905 89.1977 108.832 89.1977 110.036 90.4023Z" fill="#B992FF"/>
<path fill-rule="evenodd" clip-rule="evenodd" d="M110.157 74.9841C111.361 76.1887 111.361 78.1159 110.157 79.3205L79.2 110.157C77.9955 111.361 76.0682 111.361 74.8636 110.157C73.6591 108.952 73.6591 107.025 74.8636 105.82L105.82 75.1046C106.905 73.7796 108.952 73.7796 110.157 74.9841Z" fill="#965CFF"/>
<path fill-rule="evenodd" clip-rule="evenodd" d="M104.255 65.5887C105.459 66.7932 105.459 68.7205 104.255 69.925L86.4273 87.6318C85.2227 88.8364 83.2955 88.8364 82.0909 87.6318C80.8864 86.4273 80.8864 84.5 82.0909 83.2955L99.9182 65.5887C101.123 64.3841 103.05 64.3841 104.255 65.5887Z" fill="#965CFF"/>
<path fill-rule="evenodd" clip-rule="evenodd" d="M94.8591 59.5659C96.0636 60.7705 96.0636 62.6977 94.8591 63.9023L71.9727 86.6682C70.7682 87.8727 68.8409 87.8727 67.6364 86.6682C66.4318 85.4636 66.4318 83.5364 67.6364 82.3318L90.5227 59.5659C91.7273 58.3614 93.6545 58.3614 94.8591 59.5659Z" fill="#965CFF"/>
<path fill-rule="evenodd" clip-rule="evenodd" d="M72.2136 66.9136C73.4182 68.1182 73.4182 70.0455 72.2136 71.25L63.3 80.1636C62.0955 81.3682 60.1682 81.3682 58.9636 80.1636C57.7591 78.9591 57.7591 77.0318 58.9636 75.8273L67.8773 66.9136C69.0818 65.7091 71.0091 65.7091 72.2136 66.9136Z" fill="#B992FF"/>
<path fill-rule="evenodd" clip-rule="evenodd" d="M77.7545 58C79.4409 58 80.8864 59.325 80.8864 61.0114V61.3727C80.8864 63.0591 79.5614 64.3841 77.7545 64.3841C75.9477 64.3841 74.6227 63.0591 74.6227 61.3727V61.0114C74.6227 59.325 75.9477 58 77.7545 58Z" fill="#DCC9FF"/>
</g>
<path d="M144.547 551.344L137.743 564.504V571H132.955V564.504L126.151 551.344H131.583L135.391 559.576L139.171 551.344H144.547ZM152.748 571.224C151.217 571.224 149.836 570.897 148.604 570.244C147.391 569.591 146.429 568.657 145.72 567.444C145.029 566.231 144.684 564.812 144.684 563.188C144.684 561.583 145.039 560.173 145.748 558.96C146.457 557.728 147.428 556.785 148.66 556.132C149.892 555.479 151.273 555.152 152.804 555.152C154.335 555.152 155.716 555.479 156.948 556.132C158.18 556.785 159.151 557.728 159.86 558.96C160.569 560.173 160.924 561.583 160.924 563.188C160.924 564.793 160.56 566.212 159.832 567.444C159.123 568.657 158.143 569.591 156.892 570.244C155.66 570.897 154.279 571.224 152.748 571.224ZM152.748 567.08C153.663 567.08 154.437 566.744 155.072 566.072C155.725 565.4 156.052 564.439 156.052 563.188C156.052 561.937 155.735 560.976 155.1 560.304C154.484 559.632 153.719 559.296 152.804 559.296C151.871 559.296 151.096 559.632 150.48 560.304C149.864 560.957 149.556 561.919 149.556 563.188C149.556 564.439 149.855 565.4 150.452 566.072C151.068 566.744 151.833 567.08 152.748 567.08ZM178.052 555.376V571H173.264V568.872C172.779 569.563 172.116 570.123 171.276 570.552C170.455 570.963 169.54 571.168 168.532 571.168C167.337 571.168 166.283 570.907 165.368 570.384C164.453 569.843 163.744 569.068 163.24 568.06C162.736 567.052 162.484 565.867 162.484 564.504V555.376H167.244V563.86C167.244 564.905 167.515 565.717 168.056 566.296C168.597 566.875 169.325 567.164 170.24 567.164C171.173 567.164 171.911 566.875 172.452 566.296C172.993 565.717 173.264 564.905 173.264 563.86V555.376H178.052ZM185.439 557.98C185.999 557.121 186.699 556.449 187.539 555.964C188.379 555.46 189.313 555.208 190.339 555.208V560.276H189.023C187.829 560.276 186.933 560.537 186.335 561.06C185.738 561.564 185.439 562.46 185.439 563.748V571H180.651V555.376H185.439V557.98ZM204.245 551.344C206.317 551.344 208.128 551.755 209.677 552.576C211.227 553.397 212.421 554.555 213.261 556.048C214.12 557.523 214.549 559.231 214.549 561.172C214.549 563.095 214.12 564.803 213.261 566.296C212.421 567.789 211.217 568.947 209.649 569.768C208.1 570.589 206.299 571 204.245 571H196.881V551.344H204.245ZM203.937 566.856C205.748 566.856 207.157 566.361 208.165 565.372C209.173 564.383 209.677 562.983 209.677 561.172C209.677 559.361 209.173 557.952 208.165 556.944C207.157 555.936 205.748 555.432 203.937 555.432H201.669V566.856H203.937ZM231.113 562.936C231.113 563.384 231.085 563.851 231.029 564.336H220.193C220.268 565.307 220.576 566.053 221.117 566.576C221.677 567.08 222.359 567.332 223.161 567.332C224.356 567.332 225.187 566.828 225.653 565.82H230.749C230.488 566.847 230.012 567.771 229.321 568.592C228.649 569.413 227.8 570.057 226.773 570.524C225.747 570.991 224.599 571.224 223.329 571.224C221.799 571.224 220.436 570.897 219.241 570.244C218.047 569.591 217.113 568.657 216.441 567.444C215.769 566.231 215.433 564.812 215.433 563.188C215.433 561.564 215.76 560.145 216.413 558.932C217.085 557.719 218.019 556.785 219.213 556.132C220.408 555.479 221.78 555.152 223.329 555.152C224.841 555.152 226.185 555.469 227.361 556.104C228.537 556.739 229.452 557.644 230.105 558.82C230.777 559.996 231.113 561.368 231.113 562.936ZM226.213 561.676C226.213 560.855 225.933 560.201 225.373 559.716C224.813 559.231 224.113 558.988 223.273 558.988C222.471 558.988 221.789 559.221 221.229 559.688C220.688 560.155 220.352 560.817 220.221 561.676H226.213ZM240.639 559.352H238.063V571H233.275V559.352H231.539V555.376H233.275V554.928C233.275 553.005 233.826 551.549 234.927 550.56C236.028 549.552 237.643 549.048 239.771 549.048C240.126 549.048 240.387 549.057 240.555 549.076V553.136C239.64 553.08 238.996 553.211 238.623 553.528C238.25 553.845 238.063 554.415 238.063 555.236V555.376H240.639V559.352ZM244.457 553.752C243.617 553.752 242.926 553.509 242.385 553.024C241.862 552.52 241.601 551.904 241.601 551.176C241.601 550.429 241.862 549.813 242.385 549.328C242.926 548.824 243.617 548.572 244.457 548.572C245.278 548.572 245.95 548.824 246.473 549.328C247.014 549.813 247.285 550.429 247.285 551.176C247.285 551.904 247.014 552.52 246.473 553.024C245.95 553.509 245.278 553.752 244.457 553.752ZM246.837 555.376V571H242.049V555.376H246.837ZM248.515 563.188C248.515 561.564 248.841 560.145 249.495 558.932C250.167 557.719 251.091 556.785 252.267 556.132C253.461 555.479 254.824 555.152 256.355 555.152C258.315 555.152 259.948 555.665 261.255 556.692C262.58 557.719 263.448 559.165 263.859 561.032H258.763C258.333 559.837 257.503 559.24 256.271 559.24C255.393 559.24 254.693 559.585 254.171 560.276C253.648 560.948 253.387 561.919 253.387 563.188C253.387 564.457 253.648 565.437 254.171 566.128C254.693 566.8 255.393 567.136 256.271 567.136C257.503 567.136 258.333 566.539 258.763 565.344H263.859C263.448 567.173 262.58 568.611 261.255 569.656C259.929 570.701 258.296 571.224 256.355 571.224C254.824 571.224 253.461 570.897 252.267 570.244C251.091 569.591 250.167 568.657 249.495 567.444C248.841 566.231 248.515 564.812 248.515 563.188ZM275.184 555.208C276.976 555.208 278.413 555.805 279.496 557C280.579 558.176 281.12 559.8 281.12 561.872V571H276.36V562.516C276.36 561.471 276.089 560.659 275.548 560.08C275.007 559.501 274.279 559.212 273.364 559.212C272.449 559.212 271.721 559.501 271.18 560.08C270.639 560.659 270.368 561.471 270.368 562.516V571H265.58V550.28H270.368V557.476C270.853 556.785 271.516 556.235 272.356 555.824C273.196 555.413 274.139 555.208 275.184 555.208ZM282.655 563.16C282.655 561.555 282.954 560.145 283.551 558.932C284.167 557.719 284.998 556.785 286.043 556.132C287.088 555.479 288.255 555.152 289.543 555.152C290.644 555.152 291.606 555.376 292.427 555.824C293.267 556.272 293.911 556.86 294.359 557.588V555.376H299.147V571H294.359V568.788C293.892 569.516 293.239 570.104 292.399 570.552C291.578 571 290.616 571.224 289.515 571.224C288.246 571.224 287.088 570.897 286.043 570.244C284.998 569.572 284.167 568.629 283.551 567.416C282.954 566.184 282.655 564.765 282.655 563.16ZM294.359 563.188C294.359 561.993 294.023 561.051 293.351 560.36C292.698 559.669 291.895 559.324 290.943 559.324C289.991 559.324 289.179 559.669 288.507 560.36C287.854 561.032 287.527 561.965 287.527 563.16C287.527 564.355 287.854 565.307 288.507 566.016C289.179 566.707 289.991 567.052 290.943 567.052C291.895 567.052 292.698 566.707 293.351 566.016C294.023 565.325 294.359 564.383 294.359 563.188ZM304.179 553.752C303.339 553.752 302.648 553.509 302.107 553.024C301.584 552.52 301.323 551.904 301.323 551.176C301.323 550.429 301.584 549.813 302.107 549.328C302.648 548.824 303.339 548.572 304.179 548.572C305 548.572 305.672 548.824 306.195 549.328C306.736 549.813 307.007 550.429 307.007 551.176C307.007 551.904 306.736 552.52 306.195 553.024C305.672 553.509 305 553.752 304.179 553.752ZM306.559 555.376V571H301.771V555.376H306.559ZM318.709 555.208C320.538 555.208 321.994 555.805 323.077 557C324.178 558.176 324.729 559.8 324.729 561.872V571H319.969V562.516C319.969 561.471 319.698 560.659 319.157 560.08C318.615 559.501 317.887 559.212 316.973 559.212C316.058 559.212 315.33 559.501 314.789 560.08C314.247 560.659 313.977 561.471 313.977 562.516V571H309.189V555.376H313.977V557.448C314.462 556.757 315.115 556.216 315.937 555.824C316.758 555.413 317.682 555.208 318.709 555.208ZM337.014 551.344V563.104C337.014 564.28 337.303 565.185 337.882 565.82C338.46 566.455 339.31 566.772 340.43 566.772C341.55 566.772 342.408 566.455 343.006 565.82C343.603 565.185 343.902 564.28 343.902 563.104V551.344H348.69V563.076C348.69 564.831 348.316 566.315 347.57 567.528C346.823 568.741 345.815 569.656 344.546 570.272C343.295 570.888 341.895 571.196 340.346 571.196C338.796 571.196 337.406 570.897 336.174 570.3C334.96 569.684 333.999 568.769 333.29 567.556C332.58 566.324 332.226 564.831 332.226 563.076V551.344H337.014ZM357.568 571.224C356.205 571.224 354.992 570.991 353.928 570.524C352.864 570.057 352.024 569.423 351.408 568.62C350.792 567.799 350.446 566.884 350.372 565.876H355.104C355.16 566.417 355.412 566.856 355.86 567.192C356.308 567.528 356.858 567.696 357.512 567.696C358.109 567.696 358.566 567.584 358.884 567.36C359.22 567.117 359.388 566.809 359.388 566.436C359.388 565.988 359.154 565.661 358.688 565.456C358.221 565.232 357.465 564.989 356.42 564.728C355.3 564.467 354.366 564.196 353.62 563.916C352.873 563.617 352.229 563.16 351.688 562.544C351.146 561.909 350.876 561.06 350.876 559.996C350.876 559.1 351.118 558.288 351.604 557.56C352.108 556.813 352.836 556.225 353.788 555.796C354.758 555.367 355.906 555.152 357.232 555.152C359.192 555.152 360.732 555.637 361.852 556.608C362.99 557.579 363.644 558.867 363.812 560.472H359.388C359.313 559.931 359.07 559.501 358.66 559.184C358.268 558.867 357.745 558.708 357.092 558.708C356.532 558.708 356.102 558.82 355.804 559.044C355.505 559.249 355.356 559.539 355.356 559.912C355.356 560.36 355.589 560.696 356.056 560.92C356.541 561.144 357.288 561.368 358.296 561.592C359.453 561.891 360.396 562.189 361.124 562.488C361.852 562.768 362.486 563.235 363.028 563.888C363.588 564.523 363.877 565.381 363.896 566.464C363.896 567.379 363.634 568.2 363.112 568.928C362.608 569.637 361.87 570.197 360.9 570.608C359.948 571.019 358.837 571.224 357.568 571.224ZM380.713 562.936C380.713 563.384 380.685 563.851 380.629 564.336H369.793C369.868 565.307 370.176 566.053 370.717 566.576C371.277 567.08 371.958 567.332 372.761 567.332C373.956 567.332 374.786 566.828 375.253 565.82H380.349C380.088 566.847 379.612 567.771 378.921 568.592C378.249 569.413 377.4 570.057 376.373 570.524C375.346 570.991 374.198 571.224 372.929 571.224C371.398 571.224 370.036 570.897 368.841 570.244C367.646 569.591 366.713 568.657 366.041 567.444C365.369 566.231 365.033 564.812 365.033 563.188C365.033 561.564 365.36 560.145 366.013 558.932C366.685 557.719 367.618 556.785 368.813 556.132C370.008 555.479 371.38 555.152 372.929 555.152C374.441 555.152 375.785 555.469 376.961 556.104C378.137 556.739 379.052 557.644 379.705 558.82C380.377 559.996 380.713 561.368 380.713 562.936ZM375.813 561.676C375.813 560.855 375.533 560.201 374.973 559.716C374.413 559.231 373.713 558.988 372.873 558.988C372.07 558.988 371.389 559.221 370.829 559.688C370.288 560.155 369.952 560.817 369.821 561.676H375.813ZM387.187 557.98C387.747 557.121 388.447 556.449 389.287 555.964C390.127 555.46 391.06 555.208 392.087 555.208V560.276H390.771C389.576 560.276 388.68 560.537 388.083 561.06C387.486 561.564 387.187 562.46 387.187 563.748V571H382.399V555.376H387.187V557.98ZM403.056 555.208C404.885 555.208 406.341 555.805 407.424 557C408.525 558.176 409.076 559.8 409.076 561.872V571H404.316V562.516C404.316 561.471 404.045 560.659 403.504 560.08C402.962 559.501 402.234 559.212 401.32 559.212C400.405 559.212 399.677 559.501 399.136 560.08C398.594 560.659 398.324 561.471 398.324 562.516V571H393.536V555.376H398.324V557.448C398.809 556.757 399.462 556.216 400.284 555.824C401.105 555.413 402.029 555.208 403.056 555.208ZM410.611 563.16C410.611 561.555 410.909 560.145 411.507 558.932C412.123 557.719 412.953 556.785 413.999 556.132C415.044 555.479 416.211 555.152 417.499 555.152C418.6 555.152 419.561 555.376 420.383 555.824C421.223 556.272 421.867 556.86 422.315 557.588V555.376H427.103V571H422.315V568.788C421.848 569.516 421.195 570.104 420.355 570.552C419.533 571 418.572 571.224 417.471 571.224C416.201 571.224 415.044 570.897 413.999 570.244C412.953 569.572 412.123 568.629 411.507 567.416C410.909 566.184 410.611 564.765 410.611 563.16ZM422.315 563.188C422.315 561.993 421.979 561.051 421.307 560.36C420.653 559.669 419.851 559.324 418.899 559.324C417.947 559.324 417.135 559.669 416.463 560.36C415.809 561.032 415.483 561.965 415.483 563.16C415.483 564.355 415.809 565.307 416.463 566.016C417.135 566.707 417.947 567.052 418.899 567.052C419.851 567.052 420.653 566.707 421.307 566.016C421.979 565.325 422.315 564.383 422.315 563.188ZM449.663 555.208C451.604 555.208 453.144 555.796 454.283 556.972C455.44 558.148 456.019 559.781 456.019 561.872V571H451.259V562.516C451.259 561.508 450.988 560.733 450.447 560.192C449.924 559.632 449.196 559.352 448.263 559.352C447.329 559.352 446.592 559.632 446.051 560.192C445.528 560.733 445.267 561.508 445.267 562.516V571H440.507V562.516C440.507 561.508 440.236 560.733 439.695 560.192C439.172 559.632 438.444 559.352 437.511 559.352C436.577 559.352 435.84 559.632 435.299 560.192C434.776 560.733 434.515 561.508 434.515 562.516V571H429.727V555.376H434.515V557.336C435 556.683 435.635 556.169 436.419 555.796C437.203 555.404 438.089 555.208 439.079 555.208C440.255 555.208 441.3 555.46 442.215 555.964C443.148 556.468 443.876 557.187 444.399 558.12C444.94 557.261 445.677 556.561 446.611 556.02C447.544 555.479 448.561 555.208 449.663 555.208ZM473.255 562.936C473.255 563.384 473.227 563.851 473.171 564.336H462.335C462.41 565.307 462.718 566.053 463.259 566.576C463.819 567.08 464.501 567.332 465.303 567.332C466.498 567.332 467.329 566.828 467.795 565.82H472.891C472.63 566.847 472.154 567.771 471.463 568.592C470.791 569.413 469.942 570.057 468.915 570.524C467.889 570.991 466.741 571.224 465.471 571.224C463.941 571.224 462.578 570.897 461.383 570.244C460.189 569.591 459.255 568.657 458.583 567.444C457.911 566.231 457.575 564.812 457.575 563.188C457.575 561.564 457.902 560.145 458.555 558.932C459.227 557.719 460.161 556.785 461.355 556.132C462.55 555.479 463.922 555.152 465.471 555.152C466.983 555.152 468.327 555.469 469.503 556.104C470.679 556.739 471.594 557.644 472.247 558.82C472.919 559.996 473.255 561.368 473.255 562.936ZM468.355 561.676C468.355 560.855 468.075 560.201 467.515 559.716C466.955 559.231 466.255 558.988 465.415 558.988C464.613 558.988 463.931 559.221 463.371 559.688C462.83 560.155 462.494 560.817 462.363 561.676H468.355Z" fill="black"/>
</g>
<defs>
<linearGradient id="paint0_linear_1_2" x1="641.5" y1="1003" x2="-58.9999" y2="-149.5" gradientUnits="userSpaceOnUse">
<stop stop-color="#4BBE96"/>
<stop offset="0.500785" stop-color="#202020"/>
<stop offset="1" stop-color="#965CFF"/>
</linearGradient>
<clipPath id="clip0_1_2">
<rect width="600" height="900" fill="white"/>
</clipPath>
<clipPath id="clip1_1_2">
<rect width="53" height="53" fill="white" transform="translate(58 58)"/>
</clipPath>
</defs>
</svg>
