<?xml version="1.0" encoding="utf-8"?>
<!-- Generator: Adobe Illustrator 25.4.1, SVG Export Plug-In . SVG Version: 6.00 Build 0)  -->
<svg version="1.1" id="Layer_1" xmlns="http://www.w3.org/2000/svg" xmlns:xlink="http://www.w3.org/1999/xlink" x="0px" y="0px"
	 viewBox="0 0 44 44" style="enable-background:new 0 0 44 44;" xml:space="preserve">
<style type="text/css">
	.st0{fill-rule:evenodd;clip-rule:evenodd;fill:#965CFF;}
	.st1{fill-rule:evenodd;clip-rule:evenodd;fill:#B992FF;}
	.st2{fill-rule:evenodd;clip-rule:evenodd;fill:#DCC9FF;}
</style>
<path class="st0" d="M4.7,27.1c1,1,1,2.6,0,3.6l-0.1,0.1c-1,1-2.6,1-3.6,0s-1-2.6,0-3.6l0.1-0.1C2.1,26.1,3.7,26.1,4.7,27.1z"/>
<path class="st1" d="M16.7,27.8c1,1,1,2.6,0,3.6l-7.1,7c-1,1-2.6,1-3.6,0s-1-2.6,0-3.6l7.1-7C14.1,26.8,15.7,26.8,16.7,27.8z"/>
<path class="st2" d="M26.3,39.9c0.8-1.2,2.4-1.5,3.5-0.7l0.2,0.1c1.2,0.8,1.5,2.4,0.7,3.5c-0.8,1.2-2.4,1.5-3.5,0.7L27,43.4
	C25.9,42.6,25.6,41.1,26.3,39.9z"/>
<path class="st1" d="M43.2,26.9c1,1,1,2.6,0,3.6L39.7,34c-1,1-2.6,1-3.6,0s-1-2.6,0-3.6l3.5-3.5C40.6,25.9,42.2,25.9,43.2,26.9z"/>
<path class="st0" d="M43.3,14.1c1,1,1,2.6,0,3.6L17.6,43.3c-1,1-2.6,1-3.6,0s-1-2.6,0-3.6l25.7-25.5C40.6,13.1,42.3,13.1,43.3,14.1z
	"/>
<path class="st0" d="M38.4,6.3c1,1,1,2.6,0,3.6L23.6,24.6c-1,1-2.6,1-3.6,0S19,22,20,21L34.8,6.3C35.8,5.3,37.4,5.3,38.4,6.3z"/>
<path class="st0" d="M30.6,1.3c1,1,1,2.6,0,3.6l-19,18.9c-1,1-2.6,1-3.6,0s-1-2.6,0-3.6L27,1.3C28,0.3,29.6,0.3,30.6,1.3z"/>
<path class="st1" d="M11.8,7.4c1,1,1,2.6,0,3.6l-7.4,7.4c-1,1-2.6,1-3.6,0s-1-2.6,0-3.6l7.4-7.4C9.2,6.4,10.8,6.4,11.8,7.4z"/>
<path class="st2" d="M16.4,0C17.8,0,19,1.1,19,2.5v0.3c0,1.4-1.1,2.5-2.6,2.5s-2.6-1.1-2.6-2.5V2.5C13.8,1.1,14.9,0,16.4,0z"/>
</svg>
